<svg width="215" height="41" viewBox="0 0 215 41" fill="none" xmlns="http://www.w3.org/2000/svg">
<g clip-path="url(#clip0)">
<path d="M19.9138 40.3277C30.912 40.3277 39.8277 31.412 39.8277 20.4138C39.8277 9.41573 30.912 0.5 19.9138 0.5C8.91573 0.5 0 9.41573 0 20.4138C0 31.412 8.91573 40.3277 19.9138 40.3277Z" fill="white"/>
<path d="M33.0154 23.62H33.52V23.7123H33.3169V24.1431H33.2123V23.7123H33.0092V23.62H33.0154ZM9.26154 25.62H8.11693C7.85847 25.62 7.72924 25.4785 7.72924 25.1954V24.7462C7.72924 24.6169 7.76001 24.5123 7.83385 24.4262C7.90154 24.34 7.99385 24.3031 8.11078 24.3031H9.00924C9.21847 24.3031 9.36616 24.4077 9.4277 24.6108L9.55078 25.0477H10.3754V24.5677C10.3754 24.2477 10.2708 23.9831 10.0554 23.7677C9.83385 23.5523 9.56924 23.4477 9.25539 23.4477H7.92001C7.60616 23.4477 7.33539 23.5585 7.1077 23.78C6.88616 24.0016 6.77539 24.2723 6.77539 24.58V25.3554C6.77539 25.6692 6.88616 25.94 7.1077 26.1677C7.33539 26.3892 7.60616 26.5 7.92001 26.5H9.06462C9.31693 26.5 9.44616 26.6477 9.44616 26.9369V27.5277C9.44616 27.6508 9.40924 27.7616 9.34154 27.8416C9.2677 27.9277 9.17539 27.9708 9.06462 27.9708H8.15385C7.92616 27.9708 7.78462 27.8662 7.72924 27.6631L7.60616 27.1708H6.77539V27.7062C6.77539 28.0323 6.88001 28.2969 7.09539 28.5123C7.31077 28.7277 7.57539 28.8323 7.90154 28.8323H9.25539C9.56924 28.8323 9.84001 28.7216 10.0615 28.4939C10.2831 28.2723 10.3939 28.0016 10.3939 27.6816V26.7708C10.3939 26.4569 10.2831 26.1923 10.0615 25.9646C9.84001 25.7369 9.56924 25.62 9.26154 25.62ZM14.7569 23.78C14.9785 24.0016 15.0892 24.2662 15.0892 24.58V25.7123C15.0892 26.0262 14.9785 26.2969 14.7569 26.5185C14.5292 26.74 14.2585 26.8508 13.9446 26.8508H12.4615V28.8262H11.5139V23.4477H13.9446C14.2585 23.4477 14.5292 23.5585 14.7569 23.78ZM14.1415 24.7523C14.1415 24.6231 14.1046 24.5185 14.0308 24.4323C13.9631 24.3462 13.8646 24.3092 13.7539 24.3092H12.4554V25.9769H13.7539C13.8646 25.9769 13.9569 25.9339 14.0308 25.8539C14.1046 25.7677 14.1415 25.6631 14.1415 25.5339V24.7523ZM23.6062 26.6046L24.5477 28.8262H23.5385L22.6646 26.7216H21.76V28.8262H20.8062V23.4477H23.1815C23.5015 23.4477 23.7723 23.5585 23.9939 23.78C24.2154 24.0016 24.3262 24.2723 24.3262 24.58V25.5154C24.3262 25.7616 24.2585 25.9831 24.1231 26.18C23.9877 26.3708 23.8092 26.5123 23.6062 26.6046ZM23.3785 24.7523C23.3785 24.6231 23.3477 24.5185 23.2739 24.4323C23.2062 24.3462 23.1139 24.3092 23.0031 24.3092H21.76V25.8477H23.0031C23.1139 25.8477 23.2062 25.8046 23.2739 25.7308C23.3415 25.6508 23.3785 25.5462 23.3785 25.4169V24.7523ZM24.9292 24.3154H26.2954V28.8262H27.2492V24.3154H28.6277V23.4477H24.9292V24.3154ZM31.7969 25.62H30.6523C30.4 25.62 30.2708 25.4785 30.2708 25.1954V24.7462C30.2708 24.6169 30.3077 24.5123 30.3754 24.4262C30.4431 24.34 30.5415 24.3031 30.6523 24.3031H31.5569C31.7662 24.3031 31.9077 24.4077 31.9754 24.6108L32.0985 25.0477H32.9231V24.5677C32.9231 24.2477 32.8123 23.9831 32.5969 23.7677C32.3754 23.5523 32.1108 23.4477 31.7908 23.4477H30.4615C30.1477 23.4477 29.8708 23.5585 29.6554 23.78C29.4339 24.0016 29.3169 24.2723 29.3169 24.58V25.3554C29.3169 25.6692 29.4339 25.94 29.6554 26.1677C29.8769 26.3892 30.1477 26.5 30.4615 26.5H31.6062C31.8646 26.5 31.9877 26.6477 31.9877 26.9369V27.5277C31.9877 27.6508 31.9508 27.7616 31.8831 27.8416C31.8154 27.9277 31.7169 27.9708 31.6 27.9708H30.6892C30.4615 27.9708 30.32 27.8662 30.2646 27.6631L30.1415 27.1708H29.3108V27.7062C29.3108 28.0323 29.4215 28.2969 29.6308 28.5123C29.8462 28.7277 30.1108 28.8323 30.4369 28.8323H31.7846C32.1046 28.8323 32.3754 28.7216 32.5969 28.4939C32.8185 28.2723 32.9292 28.0016 32.9292 27.6816V26.7708C32.9292 26.4569 32.8185 26.1923 32.5846 25.9646C32.3754 25.7369 32.1108 25.62 31.7969 25.62ZM34.1415 23.62L33.9385 23.9339L33.7354 23.62H33.6492V24.1431H33.7354V23.8231C33.7354 23.8046 33.7231 23.7862 33.7231 23.7677C33.7354 23.7862 33.7477 23.8046 33.7539 23.8169L33.9262 24.0754H33.9446L34.1108 23.8231C34.1231 23.8046 34.1292 23.7862 34.1354 23.7677C34.1354 23.7923 34.1354 23.8108 34.1354 23.8231V24.1431H34.2277V23.62H34.1415ZM19.3108 23.7739C19.5385 23.9892 19.6492 24.2662 19.6492 24.5739V27.6631C19.6492 27.9892 19.5385 28.26 19.3108 28.4816C19.0831 28.7031 18.8185 28.82 18.4985 28.82H17.2123C16.8923 28.82 16.6215 28.7092 16.4 28.4816C16.1785 28.26 16.0615 27.9892 16.0615 27.6631V24.5739C16.0615 24.2662 16.1723 23.9954 16.4 23.7739C16.6215 23.5523 16.8923 23.4416 17.2123 23.4416H18.4985C18.8246 23.4477 19.0892 23.5585 19.3108 23.7739ZM18.7015 24.7523C18.7015 24.6231 18.6646 24.5185 18.5908 24.4323C18.5231 24.3462 18.4308 24.3092 18.32 24.3092H17.4092C17.2923 24.3092 17.2 24.3523 17.1262 24.4323C17.0585 24.5185 17.0215 24.6231 17.0215 24.7523V27.5092C17.0215 27.6323 17.0523 27.7369 17.1262 27.8231C17.2 27.9092 17.2862 27.9523 17.4092 27.9523H18.32C18.4308 27.9523 18.5231 27.9092 18.5908 27.8231C18.6646 27.7369 18.7015 27.6323 18.7015 27.5092V24.7523ZM22.7139 9.71848H12.4739L10.9108 12.2108L21.1446 12.2046L22.7139 9.71848ZM26.5908 17.1831H25.0585L23.4831 19.6754H28.1662L29.7415 22.1616H32.7323L24.8062 9.63232L18.4431 19.6754H11.4831L13.0831 17.1831H17.4092L18.9846 14.6908H9.33539L7.76001 17.1831H10.0739L6.92308 22.1677H19.8892L24.8062 14.3585L26.5908 17.1831Z" fill="black"/>
<path d="M189.858 31.2386C189.858 33.3986 191.612 35.1463 193.766 35.1463H208.781C210.941 35.1463 212.689 33.3925 212.689 31.2386V7.68786C212.689 5.52786 210.941 3.78017 208.781 3.8294H193.766C191.606 3.77402 189.858 5.52786 189.858 7.68786V31.2386Z" fill="#154271"/>
<path d="M193.772 4.67261C192.105 4.67261 190.757 6.02645 190.757 7.68799V31.2326C190.757 32.9003 192.111 34.248 193.772 34.248H208.788C210.455 34.248 211.803 32.9003 211.803 31.2326V7.68799C211.803 6.0203 210.449 4.67261 208.788 4.67261H193.772V4.67261Z" fill="white"/>
<path d="M193.754 5.13408C192.338 5.13408 191.194 6.2787 191.194 7.69408V31.2387C191.194 32.6541 192.338 33.7987 193.754 33.7987H208.769C210.185 33.7987 211.329 32.6541 211.329 31.2387V7.68793C211.329 6.27255 210.185 5.12793 208.769 5.12793H193.754V5.13408Z" fill="#154271"/>
<path d="M212.702 34.3156C212.702 33.8602 213.071 33.491 213.532 33.491C213.988 33.491 214.357 33.8602 214.357 34.3156C214.357 34.7771 213.988 35.1464 213.532 35.1464C213.071 35.1464 212.702 34.7771 212.702 34.3156ZM214.228 34.3156C214.228 33.9156 213.932 33.6017 213.532 33.6017C213.126 33.6017 212.831 33.9156 212.831 34.3156C212.831 34.7217 213.126 35.0356 213.532 35.0356C213.932 35.0356 214.228 34.7217 214.228 34.3156ZM213.945 34.7771H213.809L213.545 34.3525H213.335V34.7771H213.225V33.854H213.631C213.877 33.854 213.957 33.9464 213.957 34.1002C213.957 34.2848 213.828 34.3525 213.668 34.3525L213.945 34.7771ZM213.508 34.2664C213.637 34.2664 213.834 34.291 213.834 34.1002C213.834 33.9525 213.717 33.9402 213.6 33.9402H213.335V34.2664H213.508Z" fill="#154271"/>
<path d="M194.461 9.18319H194.88C195.108 9.18319 195.292 9.33088 195.292 9.56473C195.292 9.79857 195.102 9.94011 194.812 9.94011H194.461V9.18319ZM193.692 10.8693C193.692 10.9616 193.637 11.0232 193.532 11.0232H193.28V11.3555H194.892V11.0232H194.615C194.511 11.0232 194.455 10.9678 194.455 10.8693V10.2724H194.905C195.655 10.2724 196.055 10.0755 196.055 9.55857C196.055 9.04165 195.662 8.84473 194.985 8.84473H193.274V9.17703H193.526C193.631 9.17703 193.686 9.23242 193.686 9.33088V10.8693H193.692Z" fill="white"/>
<path d="M199.317 10.3648H199.126C199.022 10.3648 198.966 10.4202 198.966 10.5187V11.3864H198.609L198.517 11.2018C198.277 11.3741 197.975 11.4295 197.711 11.4295C196.862 11.4295 196.265 10.9864 196.265 10.1371C196.265 9.28177 196.843 8.771 197.711 8.771C197.951 8.771 198.24 8.84484 198.449 9.0233L198.529 8.81407H198.898V9.69407H198.517C198.505 9.31869 198.265 9.12177 197.846 9.12177C197.372 9.12177 197.145 9.44792 197.145 10.1002C197.145 10.7525 197.372 11.0664 197.846 11.0664C198 11.0664 198.191 11.011 198.191 10.8325V10.5125C198.191 10.4202 198.135 10.3587 198.031 10.3587H197.822V10.0264H199.311V10.3648H199.317Z" fill="white"/>
<path d="M202.431 11.0665C202.154 11.0234 202.148 10.9619 202.043 10.7342L201.237 8.87573H200.622L199.852 10.5927C199.735 10.845 199.655 11.0419 199.305 11.0727V11.3619H200.535V11.0727L200.492 11.0665C200.394 11.0542 200.178 11.0542 200.178 10.9311C200.178 10.888 200.203 10.8142 200.228 10.7711L200.277 10.6542H201.249L201.305 10.7711C201.317 10.8203 201.36 10.9127 201.36 10.9619C201.36 11.0727 201.114 11.0665 201.028 11.0727V11.3619H202.474V11.0727L202.431 11.0665ZM200.394 10.3527L200.769 9.50958L201.114 10.3527H200.394Z" fill="white"/>
<path d="M209.483 12.3709C209.871 11.9771 209.883 11.0294 209.883 11.0294C209.489 10.3155 208.677 10.1063 208.677 10.1063C208.492 9.97708 208.345 10.094 208.289 10.1617C208.289 10.1617 208.289 10.1617 208.283 10.1617L201.717 6.14939C201.237 5.90324 200.578 6.74631 200.412 7.06016C200.345 7.17093 200.56 7.33708 200.708 7.42939C201.305 7.81708 201.588 6.82016 201.809 6.46324L208.16 10.4694C208.148 10.4755 208.178 10.8017 208.197 10.814C208.191 11.3371 208.609 11.7679 208.363 12.5248C208.295 13.5832 207.151 13.7925 206.529 14.4509C205.957 15.0109 204.825 14.9432 204.351 15.4048C204.345 15.4109 204.338 15.4171 204.338 15.4171L204.332 15.3986C203.926 14.3279 203.68 14.2663 203.557 13.8417C203.058 13.6509 202.468 13.6079 201.988 13.8663C201.526 14.1679 201.298 14.734 201.378 15.2325C201.391 15.7432 202.111 16.3032 202.492 16.5248C202.246 16.8755 202.129 17.3063 202.129 17.4848C202.068 18.2417 202.671 18.9679 202.837 19.2694C203.551 20.3217 203.951 21.1586 204.105 21.454C204.129 21.5094 204.166 21.5586 204.129 21.6325C204.117 21.6509 203.514 22.7094 204.511 24.2294C204.917 25.0109 205.502 26.7525 205.508 26.7648C205.742 27.0109 205.194 26.8571 205.138 27.4294C204.745 27.5832 201.778 29.854 201.108 30.4571C200.843 30.5371 200.498 30.5248 200.382 30.8571C200.363 30.8817 200.258 31.1771 200.197 31.2509C199.914 31.5771 199.575 32.1679 199.514 32.7402C199.446 33.0355 199.52 33.6079 199.865 33.7555C200.018 33.8232 200.086 33.774 200.123 33.7555C200.166 33.7309 200.363 33.2079 200.388 33.1525C200.622 32.5802 200.972 32.4263 201.772 31.6263C202.172 31.7371 202.351 31.9709 202.757 32.0755C203.871 31.0417 204.991 30.094 206.086 29.0355C205.92 30.6786 205.76 32.3648 205.766 32.814C205.692 33.1032 205.686 33.5955 205.889 33.8417C205.889 33.8417 207.711 33.9463 208.062 33.9217C208.234 33.9094 208.246 33.8048 208.246 33.8048C208.246 33.8048 208.406 33.5586 207.969 33.2325C207.84 33.1402 207.532 32.7586 207.298 32.5986C207.612 32.5309 207.945 32.4755 208.018 32.4755C207.932 31.614 207.914 29.7432 207.852 27.3063C207.582 24.7771 207.557 23.9279 206.302 18.7463C207.194 17.7309 207.157 17.1032 208.012 16.0571C208.468 15.1648 209.175 13.3371 209.483 12.3709ZM205.686 17.0479C205.668 16.974 205.526 16.6171 205.458 16.4263C205.452 16.4017 206.597 15.6509 206.597 15.6509C206.597 15.6509 206.609 15.7125 206.622 15.7863C206.622 15.7863 205.846 16.9432 205.686 17.0479Z" fill="white"/>
<path d="M198.523 30.7218C198.486 30.7218 198.338 30.7094 198.338 30.5433V30.371C198.338 30.1064 198.32 29.8294 198.191 29.5771C198.16 29.5156 198.123 29.4664 198.086 29.4171C198.098 29.4048 198.117 29.3987 198.129 29.3925L198.135 29.3864L198.141 29.3802C198.431 29.1341 198.578 28.8018 198.578 28.3956C198.578 28.1187 198.511 27.8356 198.381 27.5894V27.5771L198.375 27.5648C198.197 27.2633 197.932 27.0602 197.581 26.9556C198.055 26.6725 198.301 26.1987 198.301 25.5218C198.301 25.5218 198.301 23.4848 198.301 23.3433C198.394 23.3433 198.868 23.3433 198.868 23.3433L198.861 21.9218H198.406H197.526C198.301 21.491 198.745 20.6848 198.745 19.6141C198.745 18.4387 198.24 17.7187 197.551 17.3248H198.068V16.0079C198.068 16.0079 197.255 16.0079 197.065 16.0079C197.065 15.891 197.065 14.0018 197.065 13.6387C197.286 13.651 197.44 13.8787 197.458 14.2294L197.477 14.6664L198.855 14.6725V12.2048H198.486H193.249V14.6725L194.634 14.6664L194.652 14.2294C194.665 13.8787 194.818 13.651 195.046 13.6387C195.046 14.0079 195.046 15.891 195.046 16.0079C194.855 16.0079 194.043 16.0079 194.043 16.0079V17.331H194.474C193.785 17.7248 193.28 18.4448 193.28 19.6202C193.28 20.691 193.723 21.491 194.498 21.9279H193.286V23.3495C193.286 23.3495 193.772 23.3495 193.858 23.3495C193.858 23.4171 193.858 25.6633 193.858 25.6633C193.858 26.1002 194.061 26.5556 194.554 26.8633H193.274L193.268 28.2664C193.268 28.2664 193.692 28.2725 193.815 28.2664C193.815 28.2848 193.914 28.2664 193.895 28.3648C193.895 28.7587 193.895 30.1679 193.895 30.6048C193.895 30.7218 193.809 30.6848 193.809 30.7094C193.692 30.7094 193.268 30.7094 193.268 30.7094V32.1002H196.671V31.6941C196.935 31.9833 197.311 32.131 197.809 32.131H198.978V30.7218H198.523ZM195.914 23.3495H196.738C196.738 23.3495 196.806 23.3556 196.806 23.4171C196.806 23.4787 196.806 25.2818 196.806 25.5648C196.806 25.7187 196.671 25.8418 196.332 25.8418C195.994 25.8418 195.821 25.7187 195.821 25.5648C195.821 25.5648 195.821 23.4725 195.821 23.4171C195.834 23.3618 195.914 23.3495 195.914 23.3495ZM196.585 19.6202C196.585 20.4694 196.4 20.9002 196.031 20.9002C195.852 20.9002 195.477 20.9002 195.477 19.6202C195.477 18.3402 195.865 18.3402 196.031 18.3402C196.265 18.3402 196.585 18.3402 196.585 19.6202ZM195.926 30.7094C195.834 30.7094 195.828 30.6233 195.828 30.6233V30.0818H196.185C196.295 30.0818 196.351 30.1002 196.351 30.2233C196.351 30.2541 196.351 30.4818 196.351 30.4818C196.351 30.5495 196.345 30.6418 196.351 30.7094C196.345 30.7094 196.018 30.7094 195.926 30.7094ZM195.834 28.7402V28.1556H196.388C196.548 28.1556 196.658 28.2725 196.658 28.4387C196.658 28.6233 196.517 28.7402 196.388 28.7402H195.834Z" fill="white"/>
<path d="M198.394 12.574H193.612V14.2971H194.265L194.271 14.2109C194.295 13.5524 194.677 13.2571 195.046 13.2571C195.286 13.2571 195.403 13.3063 195.403 13.4047V16.0694C195.403 16.2109 195.311 16.3709 195.175 16.3709H194.4V16.9555H197.692V16.3771H196.923C196.788 16.3771 196.695 16.2171 196.695 16.0755V13.4109C196.695 13.3124 196.812 13.2632 197.052 13.2632C197.422 13.2632 197.803 13.5586 197.828 14.2171L197.834 14.3032H198.486V12.5801H198.394V12.574Z" fill="#EC2025"/>
<path d="M198.492 22.2971H198.406H196.615H196.529V22.9802H196.899C197.022 22.9802 197.102 22.9987 197.145 23.0417C197.188 23.0848 197.194 23.1525 197.188 23.2633V23.3187V25.6817C197.175 25.7987 197.065 26.2048 196.345 26.2048C195.797 26.2048 195.465 25.9956 195.465 25.6387V23.2756C195.465 23.0048 195.594 22.9802 195.711 22.9802H196.148V22.2971H193.649V22.9802H193.932C194.055 22.9802 194.135 22.9987 194.179 23.0417C194.228 23.091 194.222 23.171 194.222 23.2633V23.3187V25.6633C194.222 26.254 194.751 26.8879 196.228 26.8879C197.735 26.8879 197.926 26.1617 197.926 25.5279V23.2756C197.926 23.0048 198.055 22.9802 198.172 22.9802H198.492V22.2971Z" fill="#EC2025"/>
<path d="M196.006 17.3247C194.862 17.3247 193.637 17.9032 193.637 19.6201C193.637 21.0786 194.523 21.9155 196.006 21.9155C197.489 21.9155 198.375 21.0786 198.375 19.6201C198.375 17.9032 197.151 17.3247 196.006 17.3247ZM196.031 21.2693C195.631 21.2693 195.108 21.1278 195.108 19.6201C195.108 18.4878 195.409 17.9709 196.031 17.9709C196.689 17.9709 196.954 18.4262 196.954 19.6201C196.96 20.7216 196.64 21.2693 196.031 21.2693Z" fill="#EC2025"/>
<path d="M198.535 31.0726C198.369 31.0726 197.988 31.0603 197.988 30.5434V30.3711C197.988 30.168 197.982 29.9342 197.877 29.7434C197.785 29.5403 197.545 29.4234 197.415 29.3618C197.582 29.3065 197.766 29.2142 197.92 29.0972C198.117 28.9249 198.228 28.6972 198.228 28.3957C198.228 28.1803 198.172 27.9526 198.074 27.7618C197.859 27.4049 197.502 27.2449 196.935 27.2449L193.649 27.2388V27.9095C193.649 27.9095 193.889 27.9095 194.074 27.9095C194.259 27.9095 194.283 28.0942 194.283 28.0942C194.283 28.0942 194.289 30.1742 194.289 30.8511C194.289 30.9618 194.185 31.0788 194.086 31.0788H193.649V31.7495H196.369V31.0788H195.692C195.594 31.0788 195.477 30.9495 195.477 30.8388C195.477 30.8388 195.477 30.008 195.477 29.7372C195.508 29.7372 196.283 29.7372 196.283 29.7372C196.375 29.7372 196.72 29.7803 196.714 30.1988L196.708 30.488C196.714 30.7403 196.683 30.9434 196.794 31.2265C196.979 31.6018 197.311 31.7865 197.815 31.7865H198.615V31.0972L198.535 31.0726ZM195.465 27.7865C195.6 27.7865 196.074 27.7865 196.419 27.7865C196.726 27.7865 196.948 27.9218 197.009 28.1618C197.046 28.3095 197.052 28.5434 196.985 28.728C196.892 28.9742 196.695 29.1034 196.412 29.1034C196.412 29.1034 195.674 29.1034 195.465 29.1034C195.465 28.9557 195.465 27.9157 195.465 27.8911V27.7865V27.7865Z" fill="#EC2025"/>
<path d="M60.197 17.4232C60.197 21.7555 57.317 24.4201 52.6216 24.4201H48.5354V29.6324H43.3231V10.4263H52.6216C57.317 10.4263 60.197 13.0847 60.197 17.4232ZM55.0154 17.4478C55.0154 15.9401 54.0308 14.9801 52.4062 14.9801H48.48V19.9217H52.4062C54.0247 19.9155 55.0154 18.9555 55.0154 17.4478Z" fill="white"/>
<path d="M80.2278 18.0261V26.8077C78.3878 28.8938 75.317 30.1 71.7478 30.1C65.4893 30.1 61.5139 26.1738 61.5139 20.0323C61.5139 14.0508 65.7662 9.93384 72.1293 9.93384C75.1447 9.93384 77.477 10.8692 79.5631 13.1154L76.4616 16.1061C75.3108 14.9554 73.717 14.3215 72.0739 14.3215C68.5908 14.3215 66.6155 16.4077 66.6155 20.0261C66.6155 23.4538 68.7262 25.7308 71.8831 25.7308C73.557 25.7308 75.0093 25.2631 75.9447 24.4692V22.0261H70.8431V18.02H80.2278V18.0261Z" fill="white"/>
<path d="M95.8523 26.4509H86.9354L85.6431 29.6324H80.0739L88.6892 10.4263H94.1785L102.738 29.6324H97.1139L95.8523 26.4509ZM91.4031 15.3063L88.6892 22.057H94.0677L91.4031 15.3063Z" fill="white"/>
<path d="M122.714 14.8693H117.058V29.6324H111.846V14.8693H106.197V10.4263H122.714V14.8693Z" fill="white"/>
<path d="M123.083 20.0262C123.083 13.8785 127.225 9.92773 133.674 9.92773C140.123 9.92773 144.265 13.8785 144.265 20.0262C144.265 26.1739 140.123 30.1247 133.674 30.1247C127.225 30.1247 123.083 26.1739 123.083 20.0262ZM139.052 20.0262C139.052 16.6785 136.942 14.5124 133.674 14.5124C130.406 14.5124 128.295 16.6785 128.295 20.0262C128.295 23.3739 130.406 25.54 133.674 25.54C136.935 25.54 139.052 23.3739 139.052 20.0262Z" fill="white"/>
<path d="M146.142 21.177V10.4263H151.354V21.177C151.354 23.9217 152.695 25.5093 155.114 25.5093C157.471 25.5093 158.874 23.9155 158.874 21.177V10.4263H164.086V21.177C164.086 26.8263 160.874 30.0386 155.114 30.0386C149.354 30.0447 146.142 26.8324 146.142 21.177Z" fill="white"/>
<path d="M172.935 23.4293H171.015V29.6324H165.803V10.4263H175.323C179.575 10.4263 182.32 13.1155 182.32 17.0109C182.32 19.8355 180.923 21.9217 178.259 22.9124L183.502 29.6324H177.409L172.935 23.4293ZM174.529 14.7586H170.96V19.4232H174.529C176.258 19.4232 177.188 18.5986 177.188 17.0909C177.188 15.5832 176.258 14.7586 174.529 14.7586Z" fill="white"/>
</g>
<defs>
<clipPath id="clip0">
<rect width="214.154" height="40" fill="white" transform="translate(0 0.5)"/>
</clipPath>
</defs>
</svg>
