<svg viewBox="0 0 32 32" preserveAspectRatio="xMidYMid meet" focusable="false" style="pointer-events: none; display: block; width: 100%; height: 100%;"><g><path d="M19.766,8.372L6.927,8.392l-2.093,3.337l12.818-0.004L19.766,8.372 M14.221,20.518c-0.151,0-7.604,0.016-8.114,0.016 c0.249-0.393,1.665-2.611,1.738-2.733c0.163,0,5.014,0,5.271,0l2.122-3.354L3.117,14.467l-2.114,3.342l2.827-0.005L0,23.874h16.151 c0.286-0.453,5.654-9.017,5.904-9.412c0.219,0.334,1.664,2.623,1.9,3.002c-0.363,0-1.682,0-1.682,0l-2.101,3.337 c0,0,0.009,0,0.029,0c0.428,0,5.719,0,5.875,0c0.085,0.135,1.827,2.876,1.921,3.023H32L22.038,8.127 C21.646,8.738,14.311,20.374,14.221,20.518"></path></g></svg>