<svg width="346" height="235" viewBox="0 0 346 235" fill="none" xmlns="http://www.w3.org/2000/svg">
<path d="M162.319 15.2624V23.0748H148.951C148.951 23.0748 146.297 23.0238 144.699 21.4113L140.003 16.7498V23.0748H131.179V14.5118V1H146.784C148.618 1.11707 150.37 1.80025 151.8 2.95541C152.579 3.596 153.2 4.40628 153.618 5.32426C154.035 6.24224 154.237 7.24358 154.209 8.25168C154.24 9.24312 154.038 10.2281 153.618 11.1266C153.198 12.0252 152.572 12.8119 151.791 13.4229C151.307 13.7965 150.798 14.1356 150.267 14.4376C150.233 14.4587 150.204 14.4854 150.179 14.5164C150.156 14.5327 150.137 14.5542 150.124 14.5792C150.111 14.6042 150.105 14.6319 150.105 14.66C150.105 14.7249 150.188 15.2532 151.494 15.2671L162.319 15.2624ZM146.246 8.67798C146.247 8.4798 146.207 8.28364 146.127 8.10191C146.048 7.92019 145.933 7.75687 145.787 7.62228C145.642 7.48769 145.47 7.38477 145.283 7.32003C145.095 7.25529 144.897 7.23014 144.699 7.24618H140.086V10.0264H145.084C145.409 9.98229 145.706 9.82085 145.92 9.57248C146.135 9.32411 146.25 9.00596 146.246 8.67798V8.67798ZM222.672 23.0748H214.52L213.478 19.8729H205.895L204.881 23.0748H196.595C196.595 23.0377 203.348 1 203.348 1H215.724L222.672 23.0748ZM211.681 13.8816L209.768 7.75125L207.869 13.8816H211.681ZM199.596 1L192.801 23.0748H185.237L182.648 14.5905L179.985 23.0748H172.509L165.598 1H174.658L176.474 7.00059L178.165 1H187.428L189.323 7.00059L191.138 1H199.596ZM262.335 8.37216C262.333 8.40233 262.34 8.43236 262.354 8.45921C262.367 8.48606 262.388 8.50878 262.413 8.52507C262.803 8.95137 264.706 10.9438 265.193 11.5184C266.365 12.8403 267.001 14.5526 266.976 16.3195C266.951 18.0863 266.267 19.78 265.058 21.0684C264.4 21.7211 263.618 22.2351 262.758 22.5797C261.898 22.9244 260.978 23.0927 260.051 23.0748H242.955C242.955 23.0748 240.296 23.0099 238.684 21.4113L233.997 16.7498V23.0748H225.196V1H240.787C242.623 1.10943 244.378 1.79349 245.804 2.95541C246.583 3.59531 247.205 4.40547 247.623 5.32361C248.041 6.24175 248.242 7.24343 248.212 8.25168C248.242 9.24374 248.038 10.2289 247.616 11.1273C247.194 12.0256 246.567 12.8121 245.785 13.4229C245.306 13.7982 244.8 14.1374 244.27 14.4376C244.27 14.4376 244.108 14.5257 244.108 14.66C244.108 14.7249 244.201 15.2531 245.526 15.2531H256.471C256.505 15.2544 256.54 15.2488 256.573 15.2366C256.605 15.2245 256.635 15.2061 256.66 15.1824C256.686 15.1587 256.706 15.1303 256.72 15.0987C256.735 15.0671 256.743 15.033 256.744 14.9983C256.744 14.9644 256.737 14.9308 256.724 14.8997C256.71 14.8686 256.69 14.8406 256.665 14.8176C256.665 14.8176 254.715 12.839 253.928 11.8891C252.991 10.6113 252.463 9.08 252.413 7.4964C252.44 6.51254 252.691 5.54777 253.146 4.67512C253.601 3.80248 254.249 3.04484 255.04 2.4596C256.306 1.5924 257.787 1.08918 259.319 1.00463H273.484V8.15438H262.469C262.426 8.17257 262.39 8.20292 262.364 8.24165C262.339 8.28037 262.325 8.32577 262.325 8.37216H262.335ZM240.269 8.67798C240.267 8.47787 240.225 8.28017 240.143 8.0974C240.062 7.91462 239.943 7.75076 239.795 7.61617C239.647 7.48158 239.473 7.3792 239.283 7.31552C239.094 7.25183 238.893 7.22821 238.694 7.24618H234.09V10.0264H239.106C239.428 9.97837 239.723 9.81551 239.934 9.56776C240.146 9.32001 240.262 9.00404 240.259 8.67798H240.269ZM129.748 23.0748H121.614L120.591 19.8729H112.99L111.98 23.0655H103.712C103.712 23.0655 104.93 19.0713 106.329 14.5025L110.465 0.99073H122.837L127.07 14.5025L129.748 23.0748ZM118.779 13.8816L116.876 7.75125L114.967 13.8816H118.779ZM106.908 1V8.19608H97.2459V23.0748H89.3023V8.15438H78.9686C78.9274 8.17315 78.8929 8.20406 78.8697 8.24298C78.8465 8.2819 78.8358 8.32697 78.8389 8.37216C78.8421 8.42912 78.865 8.48318 78.9038 8.52507C79.2234 8.84479 80.4276 10.1051 81.178 10.9253C81.4003 11.1616 81.5856 11.3887 81.6968 11.4952C82.4663 12.3561 83.0148 13.3914 83.2948 14.5118C83.4212 15.0886 83.4849 15.6774 83.4847 16.2679C83.4873 17.3093 83.2579 18.3383 82.813 19.2798C82.5016 19.942 82.0803 20.5468 81.5671 21.0684C80.91 21.7182 80.1299 22.2303 79.2725 22.5748C78.4152 22.9193 77.4977 23.0893 76.5739 23.0748H4.85882L2.43173 19.1732L0 15.2856H72.975C73.0106 15.2868 73.0462 15.2809 73.0795 15.2683C73.1129 15.2556 73.1434 15.2364 73.1693 15.2118C73.1952 15.1873 73.2159 15.1578 73.2302 15.1251C73.2446 15.0924 73.2523 15.0572 73.2529 15.0215C73.2502 14.9548 73.222 14.8918 73.1741 14.8454C73.1741 14.8454 73.0537 14.7249 72.8684 14.5257C72.2848 13.9187 71.0157 12.6166 70.4506 11.8984C70.2212 11.5966 70.0182 11.2757 69.8438 10.9392C69.2646 9.88876 68.9469 8.71421 68.9175 7.51493C68.94 6.5279 69.1875 5.55905 69.641 4.68218C70.0945 3.80531 70.7421 3.04356 71.5345 2.45497C72.7973 1.58658 74.2749 1.08316 75.805 1H106.908ZM345.958 15.2578L341.09 23.0748H265.651C266.675 22.2599 267.499 21.2218 268.061 20.0397C268.623 18.8577 268.908 17.5629 268.893 16.254C268.893 15.9111 268.866 15.5821 268.842 15.2578H345.958ZM277.032 1V1.21778H276.499V2.65885H276.221V1.21778H275.698V1H277.032ZM279.222 1V2.65885H278.945V1.26875L278.393 2.65885H278.217L277.671 1.26875V2.65885H277.393V1H277.824L278.329 2.25573L278.82 1H279.222ZM343.355 158.053L342.234 160.926L341.086 158.053H340.108V161.839H340.738V158.674L341.998 161.839H342.387L343.647 158.674V161.839H344.277V158.053H343.355ZM336.306 158.053V158.558H337.496V161.839H338.13V158.558H339.335V158.053H336.306ZM187.757 214.788V213.347H187.234V213.124H188.563V213.347H188.04V214.788H187.757ZM190.476 214.788V213.398L189.92 214.788H189.749L189.198 213.398V214.788H188.92V213.124H189.346L189.851 214.389L190.346 213.124H190.768V214.788H190.476ZM183.273 213.124L196.775 234.741H191.68L188.985 230.417H181.11L183.806 226.094H186.303L183.292 221.28L174.876 234.741H152.444L157.835 226.094H153.87L156.566 221.776H173.899L171.207 226.094H162.935L160.239 230.417H172.481L183.273 213.124ZM4.94683 213.124H148.998L144.134 220.937H0.0833772L4.94683 213.124ZM161.967 213.124H179.735L177.034 217.452H159.267L161.967 213.124ZM340.961 213.124L345.838 220.937H201.787L196.924 213.124H340.961ZM341.604 129.121H339.719C337.674 129.093 335.632 128.938 333.605 128.657C330.02 128.194 329.182 126.021 328.816 122.782C328.353 117.629 328.353 108.167 328.353 96.5415V75.4352C328.353 57.2156 328.353 53.8608 328.598 50.0149C328.83 45.8214 329.788 43.7919 333.022 43.1941C334.207 42.9622 335.412 42.8397 336.62 42.8281H338.543V40.6781H302.924V42.8281H304.832C306.285 42.7988 307.735 42.9545 309.149 43.2914C311.784 43.8985 312.975 45.928 313.22 50.001C313.461 53.8469 313.461 57.2017 313.461 75.4213V96.5091C313.461 108.135 313.461 117.597 312.868 122.629C312.502 126.109 311.784 128.152 309.39 128.625C307.973 128.942 306.525 129.097 305.073 129.088H303.155V131.252H341.6L341.604 129.121ZM266.364 118.218C260.857 123.848 248.397 131.28 226.239 131.28H183.227V129.116H185.135C186.587 129.125 188.035 128.969 189.452 128.653C191.847 128.189 192.44 125.539 192.926 122.064C193.524 117.027 193.524 107.565 193.524 96.5369V75.4352C193.524 57.2156 193.524 53.8608 193.283 50.0149C193.051 45.9419 192.088 44.0328 188.137 43.1941C186.593 42.9206 185.026 42.798 183.459 42.8281H181.425V40.6781H219.754C234.729 40.6781 254.738 40.6781 267.796 54.3335C273.789 60.5611 279.417 70.5096 279.417 84.772C279.422 99.8778 273.076 111.383 266.364 118.218ZM263.377 88.2519C263.377 73.0257 257.017 63.1977 251.876 58.286C240.847 47.7444 227.184 46.308 217.85 46.308C215.456 46.308 211.018 46.6601 210.055 47.1467C208.976 47.61 208.624 48.217 208.624 49.5423C208.499 53.6152 208.499 64.041 208.499 73.5122V88.604C208.499 101.314 208.624 110.544 208.744 112.82C208.864 115.822 209.027 120.294 210.055 121.925C211.69 124.515 216.294 126.716 225.752 126.716C237.966 126.716 246.132 124.32 253.307 118.097C260.978 111.504 263.377 100.596 263.377 88.2519ZM13.9928 134.732C13.0684 135.726 12.044 136.622 10.9358 137.406C9.13671 138.682 7.21041 139.769 5.18768 140.649L5.65087 142.183C8.91532 141.536 12.0472 140.342 14.9146 138.652C17.842 136.855 20.6165 134.82 23.2103 132.568L23.5993 132.235C29.8107 126.813 33.5764 121.114 35.3735 115.864C37.7821 109.15 38.2545 101.476 38.2545 94.6417C38.2545 88.6457 37.8933 82.8954 37.8933 77.7474V61.1125C37.8933 54.3103 37.8933 53.8608 38.1341 50.0149C38.375 45.8214 39.3384 43.7919 42.5714 43.1941C43.7144 42.9569 44.8781 42.8343 46.0453 42.8281H48.1991V40.6781H10.9034V42.8281H12.9461C14.5106 42.7981 16.0742 42.9207 17.615 43.1941C21.5659 44.0328 22.5247 45.9419 22.7656 50.0149C22.9787 53.4484 22.9972 54.5976 22.9972 61.1125V89.9524C22.9972 110.002 23.0852 121.744 17.439 130.478C16.4404 132.012 15.2855 133.437 13.9928 134.732ZM148.887 113.005H146.205L146.182 113.195C146.117 113.524 145.936 114.441 145.871 114.858C145.033 119.775 143.588 122.272 140.475 123.727C137.362 125.182 126.811 125.164 123.698 125.164C111.48 125.164 109.562 123.361 109.317 115.09C109.196 111.624 109.317 100.596 109.317 96.523V87.0471C109.317 86.3289 109.442 85.8563 110.034 85.8563C112.916 85.8563 130.299 85.9768 132.573 86.2084C136.997 86.695 138.678 88.4928 139.285 90.8884C139.535 92.3161 139.689 93.7588 139.748 95.207V96.1893V96.2913H141.841L143.694 76.019H141.818C141.818 76.019 141.707 76.8994 140.142 78.2385C139.039 79.1097 137.362 79.4201 134.833 79.6286C132.054 79.8696 112.781 79.8696 110.141 79.8696C109.428 79.8696 109.303 79.4062 109.303 78.5583V48.217C109.303 47.3783 109.548 47.0262 110.141 47.0262C112.54 47.0262 130.637 47.2996 132.68 47.4895C138.483 48.0549 139.864 49.6535 140.702 51.8081C141.186 53.1962 141.428 54.6568 141.42 56.1267V57.8041H143.606L145.288 39.2694H143.435L142.045 40.7151H82.1322V42.8466H84.1748C85.7393 42.8164 87.303 42.939 88.8437 43.2127C92.7947 44.0514 93.7535 45.9604 93.999 50.0334C94.2398 53.8794 94.2398 57.2341 94.2398 75.4537V96.5415C94.2398 107.57 94.2398 117.032 93.6331 122.068C93.1699 125.544 92.5631 128.185 90.1592 128.657C88.7454 128.974 87.3003 129.129 85.8515 129.121H83.9339V131.308H146.51L148.887 113.005Z" fill="white"/>
<path d="M181.555 158.234V159.267H182.699C183.483 159.272 184.249 159.504 184.904 159.935C185.352 160.218 185.697 160.639 185.886 161.135C186.09 161.751 186.196 163.016 186.196 164.93V189.372C186.196 191.643 186.002 193.079 185.622 193.668C185.004 194.594 184.03 195.05 182.699 195.035H181.537V196.068H197.748V195.035H196.382C195.492 195.036 194.617 194.806 193.843 194.367C193.327 194.114 192.913 193.69 192.672 193.167C192.431 192.549 192.31 191.284 192.31 189.372V164.93C192.31 162.664 192.542 161.223 193.005 160.634C193.714 159.708 194.858 159.244 196.382 159.244H197.748V158.211H181.537L181.555 158.234Z" fill="white"/>
<path d="M119.641 188.506L111.545 178.205C114.162 177.139 116.667 175.735 118.182 174.035C119.677 172.378 120.49 170.215 120.456 167.983C120.5 165.926 119.79 163.924 118.46 162.353C117.196 160.821 115.509 159.693 113.61 159.11C111.702 158.523 108.741 158.229 104.727 158.229H90.9468V159.263H92.378C93.8139 159.263 94.8885 159.671 95.6203 160.491C96.1391 161.065 96.4031 162.543 96.4031 164.925V189.368C96.4031 191.522 96.2039 192.894 95.8149 193.468C95.1294 194.513 93.9853 195.033 92.3827 195.03H90.9607V196.063H107.172V195.03H105.695C104.277 195.03 103.221 194.622 102.513 193.802C101.994 193.228 101.734 191.749 101.734 189.368V179.442L102.568 179.498H103.351C103.944 179.498 104.74 179.498 105.667 179.442L115.32 191.722C116.294 193.067 117.573 194.162 119.052 194.918C120.531 195.673 122.168 196.068 123.828 196.068H129.998V195.035C127.937 194.812 125.973 194.293 124.69 193.473C122.718 192.139 121.007 190.456 119.641 188.506V188.506ZM101.716 176.458V161.061C103.11 160.762 104.529 160.59 105.954 160.546C108.31 160.546 110.206 161.263 111.642 162.696C112.358 163.429 112.917 164.3 113.286 165.256C113.654 166.212 113.825 167.233 113.786 168.257V169.244C113.825 170.268 113.654 171.289 113.286 172.244C112.917 173.2 112.358 174.071 111.642 174.804C110.212 176.234 108.316 176.951 105.954 176.954C104.53 176.922 103.111 176.763 101.716 176.477V176.458Z" fill="white"/>
<path d="M335.851 193.473C333.875 192.14 332.159 190.457 330.789 188.506L322.697 178.205C325.309 177.139 327.792 175.735 329.33 174.035C330.828 172.379 331.641 170.216 331.604 167.983C331.648 165.928 330.939 163.928 329.612 162.358C328.346 160.825 326.659 159.698 324.758 159.115C322.85 158.528 319.889 158.234 315.874 158.234H302.099V159.267H303.521C304.954 159.267 306.035 159.677 306.763 160.495C307.288 161.07 307.549 162.548 307.546 164.93V189.372C307.546 191.527 307.352 192.899 306.963 193.473C306.271 194.517 305.127 195.038 303.53 195.035H302.108V196.068H318.32V195.035H316.842C315.428 195.035 314.369 194.625 313.665 193.807C313.124 193.226 312.854 191.748 312.854 189.372V179.442L313.72 179.484H314.499C315.096 179.484 315.865 179.484 316.815 179.428L326.472 191.708C327.446 193.054 328.724 194.149 330.204 194.905C331.683 195.661 333.32 196.054 334.981 196.054H341.15V195.021C339.094 194.812 337.135 194.293 335.851 193.473ZM312.854 176.477V161.061C314.25 160.762 315.67 160.59 317.097 160.546C319.456 160.546 321.351 161.263 322.78 162.696C323.497 163.429 324.057 164.299 324.427 165.255C324.796 166.211 324.967 167.233 324.93 168.257V169.244C324.967 170.268 324.796 171.289 324.427 172.245C324.057 173.201 323.497 174.072 322.78 174.804C321.351 176.234 319.456 176.951 317.097 176.954C315.671 176.923 314.251 176.763 312.854 176.477V176.477Z" fill="white"/>
<path d="M169.396 158.234H158.387V159.272L158.905 159.351C159.596 159.444 160.27 159.636 160.906 159.921C161.089 160.02 161.26 160.139 161.416 160.278C161.64 160.453 161.825 160.674 161.956 160.927C162.088 161.179 162.164 161.457 162.18 161.742C162.18 162.53 161.763 163.947 160.939 165.982L152.013 187.885L142.587 166.158C141.732 164.19 141.304 162.74 141.304 161.807C141.297 161.49 141.364 161.177 141.5 160.891C141.636 160.605 141.837 160.355 142.087 160.162C142.606 159.732 143.739 159.434 145.487 159.267V158.234H130.04V159.267C130.985 159.312 131.915 159.523 132.786 159.893C133.451 160.211 134.036 160.673 134.5 161.246C135.107 162.219 135.62 163.248 136.033 164.318L150.202 196.934H151.235L165.177 164.374C165.737 162.891 166.605 161.543 167.724 160.421C168.564 159.766 169.563 159.348 170.619 159.212V159.212V158.234H169.378H169.396Z" fill="white"/>
<path d="M237.022 158.234V159.263L237.541 159.351C238.232 159.443 238.906 159.635 239.541 159.921C239.725 160.018 239.896 160.138 240.051 160.278C240.275 160.453 240.46 160.674 240.592 160.927C240.723 161.179 240.8 161.457 240.815 161.742C240.815 162.53 240.403 163.947 239.579 165.982L230.653 187.885L221.227 166.158C220.372 164.19 219.944 162.74 219.944 161.807C219.937 161.491 220.003 161.178 220.139 160.892C220.274 160.606 220.474 160.356 220.722 160.162C221.246 159.731 222.376 159.434 224.127 159.267V158.234H208.675V159.267C209.62 159.31 210.551 159.522 211.421 159.893C212.087 160.21 212.673 160.672 213.135 161.246C213.744 162.219 214.259 163.247 214.673 164.318L228.837 196.934H229.87L243.812 164.374C244.374 162.89 245.243 161.543 246.364 160.421C247.203 159.765 248.203 159.347 249.259 159.212V159.212V158.234H237.022V158.234Z" fill="white"/>
<path d="M273.993 157.372C269.263 157.289 264.688 159.06 261.246 162.307C257.155 166.101 255.111 171.001 255.114 177.01C255.114 182.879 256.885 187.667 260.427 191.374C262.133 193.143 264.18 194.547 266.444 195.502C268.708 196.457 271.142 196.943 273.599 196.93C276.056 196.917 278.485 196.406 280.739 195.427C282.993 194.448 285.025 193.022 286.712 191.235C290.334 187.439 292.147 182.667 292.15 176.922C292.15 171.343 290.351 166.689 286.754 162.96C283.157 159.232 278.903 157.369 273.993 157.372ZM283.748 189.229C282.835 190.634 281.616 191.814 280.183 192.681C278.749 193.548 277.139 194.081 275.471 194.238C272.164 194.624 269.363 193.717 267.069 191.518C264.07 188.623 262.228 184.207 261.543 178.27C260.87 172.478 261.625 167.932 263.808 164.633C265.562 161.983 268.118 160.463 271.478 160.074C275.063 159.657 278.012 160.546 280.325 162.743C283.212 165.523 285.016 170.016 285.735 176.222C286.399 181.965 285.737 186.3 283.748 189.229Z" fill="white"/>
<path d="M79.1214 158.234H67.1156V159.267H68.3894C68.9359 159.229 69.4837 159.32 69.9883 159.534C70.493 159.747 70.9401 160.077 71.2936 160.495C71.7568 161.088 71.993 162.571 71.993 164.93V179.34C71.993 183.196 71.6719 185.929 71.0296 187.542C70.3169 189.234 69.0513 190.634 67.4399 191.513C66.4355 192.109 65.3402 192.536 64.1976 192.778C63.1949 192.973 62.1757 193.069 61.1544 193.065C59.4693 193.118 57.7949 192.778 56.2632 192.074C55.0477 191.51 53.9957 190.645 53.2062 189.562C52.404 188.273 51.9036 186.819 51.7425 185.309C51.4915 183.706 51.3568 182.088 51.3395 180.466V164.93C51.3395 162.814 51.5727 161.424 52.0389 160.759C52.7059 159.774 53.8207 159.281 55.3831 159.281H56.8329V158.248H40.501V159.281H41.923C43.3557 159.281 44.3917 159.644 45.0309 160.37C45.6748 161.093 45.9944 162.622 45.9944 164.944V179.73C45.9944 184.289 46.2924 187.397 46.8883 189.053C47.7383 191.418 49.3327 193.444 51.4322 194.826C53.5721 196.256 56.7048 196.973 60.8302 196.976H61.1822C61.9562 196.977 62.7295 196.932 63.4982 196.842C66.1661 196.567 68.3601 195.863 70.08 194.729C72.3496 193.231 73.8735 191.436 74.6517 189.345C75.4298 187.253 75.8174 184.309 75.8143 180.513V165.134C75.8143 163.035 76.0181 161.695 76.4164 161.116C76.7916 160.524 77.3162 160.04 77.9374 159.715C78.5587 159.39 79.2546 159.234 79.9552 159.263H81.4188V158.229L79.1214 158.234Z" fill="white"/>
<path d="M20.9776 173.446C17.1378 172.172 11.8807 169.378 11.8668 166.32C11.8529 163.262 13.7195 158.359 21.4362 159.68C27.0824 160.644 28.6897 165.759 28.7638 169.411H30.1117L29.7041 158.026H28.5554L27.9023 158.795C25.5215 158.063 18.9211 156.052 14.0947 158.002C12.6681 158.577 7.09594 160.806 7.09594 167.339C7.09594 173.873 9.63883 177.38 17.9299 180.239C26.2209 183.098 27.226 186.954 27.2955 188.58C27.365 190.206 25.1556 194.863 19.7409 194.789C16.843 194.737 14.0705 193.597 11.9736 191.595C9.87664 189.594 8.60845 186.877 8.42065 183.983V183.983H7.09131L7.48502 197.004H8.64762C8.64762 197.004 9.4165 196.11 9.39334 196.128C15.2202 197.231 20.3616 198.269 26.471 195.581C28.2061 194.721 29.6655 193.392 30.6839 191.744C31.7023 190.096 32.239 188.196 32.233 186.259C32.2562 179.47 27.944 175.763 20.9776 173.446Z" fill="white"/>
</svg>
