<svg width="201px" height="24px" fill="none" xmlns="http://www.w3.org/2000/svg" alt="Electronic Arts"><g clip-path="url(#electronic-arts-wordmark_svg__a)"><path fill-rule="evenodd" clip-rule="evenodd" d="M190.184 11.836c0-.949 1.013-1.454 2.121-1.454 1.868 0 3.26 1.075 3.513 2.719h3.672c-.348-3.383-3.229-5.755-7.122-5.755-3.45 0-6.108 1.802-6.108 4.838 0 3.383 3.228 4.269 5.919 4.964 1.93.506 3.576.917 3.576 2.056 0 .916-1.044 1.549-2.5 1.549-1.963 0-3.45-1.107-3.672-2.75h-3.672c.349 3.382 3.324 5.786 7.344 5.786 3.639 0 6.488-1.93 6.488-4.965 0-3.288-3.228-4.174-5.919-4.87-1.962-.506-3.64-.948-3.64-2.118Zm-19.998-4.142h-4.02v15.778h4.02v-8.347c0-2.15 1.899-4.396 5.128-3.89V7.41c-2.438-.284-4.179 1.075-5.128 3.13V7.695Zm-13.463 7.683-3.07-6.45-2.975 6.45h6.045ZM153.811.39l11.395 23.082h-4.621l-2.248-4.711h-9.242l-2.184 4.711h-4.494L153.811.39Zm-21.996 13.502h4.083c-.759-3.827-4.051-6.514-7.976-6.514-4.558 0-8.261 3.446-8.261 8.22 0 4.744 3.703 8.19 8.261 8.19 3.925 0 7.217-2.56 7.976-6.387h-4.083c-.633 1.708-2.12 2.783-3.893 2.783-2.374 0-4.273-1.866-4.273-4.522 0-2.72 1.899-4.553 4.273-4.553 1.773 0 3.26 1.075 3.893 2.783Zm-17.955 9.58h4.019V7.694h-4.019v15.778Zm-.57-20.331c0 1.423 1.171 2.592 2.564 2.592a2.606 2.606 0 0 0 2.595-2.592 2.606 2.606 0 0 0-2.595-2.593c-1.393 0-2.564 1.17-2.564 2.593Zm-12.271 6.513v-1.96h-4.02v15.778h4.02v-9.55c0-1.833 1.425-3.288 3.292-3.288 1.931 0 3.292 1.392 3.292 3.447v9.391h4.02v-9.707c0-3.7-2.121-6.419-5.887-6.419-2.026 0-3.767.885-4.717 2.308Zm-14.174 1.423c-2.437 0-4.368 1.834-4.368 4.553 0 2.656 1.931 4.522 4.368 4.522 2.437 0 4.368-1.866 4.368-4.522 0-2.719-1.93-4.553-4.368-4.553Zm0 12.712c-4.621 0-8.356-3.447-8.356-8.19 0-4.775 3.734-8.221 8.356-8.221 4.621 0 8.356 3.446 8.356 8.22 0 4.744-3.735 8.19-8.356 8.19ZM73.223 7.694h-4.02v15.778h4.02v-8.347c0-2.15 1.899-4.396 5.127-3.89V7.41c-2.437-.284-4.178 1.075-5.127 3.13V7.695Zm107.422-4.617-3.957 1.265v15.051c0 2.435 1.71 4.08 4.621 4.08h3.925v-3.574h-2.785c-1.234 0-1.804-.569-1.804-1.613V11.11h4.589V7.694h-4.589V3.077Zm-117.565 0-3.956 1.265v15.051c0 2.435 1.709 4.08 4.62 4.08h3.926v-3.574h-2.786c-1.234 0-1.804-.569-1.804-1.613V11.11h4.59V7.694h-4.59V3.077Zm-9.329 10.815h4.083c-.76-3.827-4.05-6.514-7.976-6.514-4.557 0-8.26 3.446-8.26 8.22 0 4.744 3.703 8.19 8.26 8.19 3.925 0 7.217-2.56 7.976-6.387h-4.083c-.633 1.708-2.12 2.783-3.893 2.783-2.374 0-4.273-1.866-4.273-4.522 0-2.72 1.9-4.553 4.273-4.553 1.773 0 3.26 1.075 3.893 2.783Zm-17.875.126c-.348-1.866-1.994-3.162-3.862-3.162-1.867 0-3.418 1.233-3.956 3.162h7.818Zm4.337 2.877H28.026c.537 1.992 2.31 3.32 4.462 3.32 1.235 0 2.374-.474 3.039-1.454h4.463c-1.203 3.035-4.052 5.028-7.565 5.028-4.748 0-8.61-3.479-8.61-8.222 0-4.774 3.672-8.22 8.198-8.22 3.925 0 8.23 2.876 8.23 8.947 0 .19-.032.38-.032.601Zm-22.196 6.577h4.02V.073l-4.02 1.265v22.134ZM.11 1.338h16.08v3.89H4.54v5.185h9.432v3.826H4.541v5.407H16.19v3.826H.11V1.338Z" fill="currentcolor"></path></g><defs><clipPath id="electronic-arts-wordmark_svg__a"><path fill="#fff" transform="translate(.11)" d="M0 0h200v24H0z"></path></clipPath></defs></svg>