<svg viewBox="0 0 24 24" xmlns="http://www.w3.org/2000/svg" class="Instagram_svg__instagram-icon-Q9twFmdszF" alt="Instagram" height="24px" width="24px"><path fill-rule="evenodd" clip-rule="evenodd" d="M17.661 6.35c.218.218.343.52.343.83 0 .307-.125.61-.343.828-.218.217-.52.343-.829.343a1.18 1.18 0 0 1-.827-.343 1.181 1.181 0 0 1-.344-.828 1.177 1.177 0 0 1 1.17-1.172c.31 0 .613.125.83.343zM12 15.042A3.044 3.044 0 0 1 8.959 12 3.045 3.045 0 0 1 12 8.959 3.045 3.045 0 0 1 15.041 12 3.044 3.044 0 0 1 12 15.041zm0-7.679A4.643 4.643 0 0 0 7.362 12 4.643 4.643 0 0 0 12 16.639 4.643 4.643 0 0 0 16.638 12 4.643 4.643 0 0 0 12 7.362zm7.403 8.67a3.375 3.375 0 0 1-3.371 3.371H7.967a3.374 3.374 0 0 1-3.37-3.37V7.968c0-1.86 1.512-3.37 3.37-3.37h8.065a3.374 3.374 0 0 1 3.371 3.37v8.065zM16.032 3H7.967A4.973 4.973 0 0 0 3 7.968v8.065A4.972 4.972 0 0 0 7.967 21h8.065A4.973 4.973 0 0 0 21 16.033V7.968A4.973 4.973 0 0 0 16.032 3z"></path></svg>