<svg width="42px" height="40px" fill="none" xmlns="http://www.w3.org/2000/svg" alt="Maxis"><g clip-path="url(#maxis-logo_svg__a)" fill="currentcolor"><path d="m18.056 24.589.16 1.275 5.992-1.149.106-1.382-6.258 1.256ZM18.242 26.814l.146 1.196 5.647-1.09.106-1.381-5.899 1.275ZM19.365 28.913l.126 1.017 3.474-.572.107-1.481-3.707 1.036ZM19.398 21.44c-.232-.79-.385-1.64-.425-1.906-.02-.113-.412-2.857.22-6.205.185-.963.43-1.88.75-2.743-.89-2.226-2.053-4.145-3.096-5.075-.445-.399-.844-.585-1.07-.512-.112.04-.49.26-.743 1.541-1.096 5.647.265 10.988 4.278 16.787l.956-.186c-.418-.352-.67-1.037-.87-1.7ZM28.87 7.736c-.032 1.508-.298 3.381-.77 5.42-.77 3.342-1.96 6.603-3.188 8.842l7.851-6.43-.976-9.373-3.806-2.152c.637.67.93 1.88.89 3.693Z"></path><path d="M21.304 20.244c.439-2.039.226-4.663-.598-7.466-.83 3.46-.398 6.503-.391 6.556.112.77.365 1.767.59 2.339.107-.273.247-.718.4-1.429ZM14.123 15.847c-.91-3.175-1.049-6.304-.418-9.56.146-.763.372-1.361.678-1.8l-3.946 2.737.757 12.27 6.018 3.109c-1.428-2.299-2.444-4.524-3.088-6.756Z"></path><path d="m21.836 22.828 1.103-.219c1.421-1.966 2.93-5.779 3.846-9.758 1.043-4.53.857-7.227.206-7.885-.339-.346-1.043.04-1.574.418-1.993 1.422-3.242 3.295-4.013 5.202 1.196 3.175 1.88 6.908 1.23 9.937-.22 1.003-.46 1.807-.798 2.305ZM17.75 4.5c.984.878 2.04 2.465 2.937 4.392.963-1.88 2.292-3.441 3.94-4.617.683-.492 1.573-.937 2.39-.777L20.833.004l-5.261 3.653c.511-.093 1.255.02 2.179.844ZM10.218 32.275c-1.342 0-2.12.624-2.644 1.415-.518-.804-.977-1.415-2.345-1.415-1.342 0-1.993.551-2.471 1.415v-1.282H.519v6.908h2.292l.232-4.63 2.305-.246-.08 4.876h2.459v-4.63l2.438-.126.265 4.756h2.438l-.126-4.059c-.047-2.092-.664-2.982-2.524-2.982ZM19.49 32.414v1.289c-.424-.824-1.414-1.428-2.65-1.428-2.198 0-3.208 1.434-3.208 3.607 0 2.119.976 3.567 3.281 3.567 1.143 0 2.173-.724 2.578-1.402v1.269h2.378v-6.909H19.49v.007Zm-.012 4.763-3.349.126.007-2.816 3.341.199v2.491ZM31.07 32.414h-2.757l-.924 1.402-.418.717-.432-.73-.864-1.395h-2.803l2.518 3.467-2.624 3.448h2.73l.937-1.468.405-.691.418.704.97 1.455h2.744l-2.432-3.448 2.531-3.46ZM31.96 32.414v6.909h2.464v-6.909H31.96ZM42.568 37.064c0 1.535-1.348 2.392-3.673 2.392-2.106 0-3.501-.87-3.501-2.272l2.637-.027.087.77 2.045-.066.054-1.023c-.93-.133-2.412-.252-2.412-.252-1.468-.18-2.192-1.003-2.192-2.159 0-1.389 1.276-2.232 3.375-2.232 2.238 0 3.593.784 3.593 2.292l-2.484.013-.053-.718-2.179.08.047.844c.418.073 2.424.259 2.424.259 1.336.106 2.232.963 2.232 2.1ZM33.189 31.81c.818 0 1.481-.566 1.481-1.263s-.663-1.262-1.481-1.262c-.818 0-1.482.566-1.482 1.262 0 .697.664 1.263 1.482 1.263Z"></path></g><defs><clipPath id="maxis-logo_svg__a"><path fill="#fff" transform="translate(.11)" d="M0 0h42.781v40H0z"></path></clipPath></defs></svg>