<svg width="102px" height="40px" fill="none" xmlns="http://www.w3.org/2000/svg" alt="The Sims"><g clip-path="url(#the-sims-franchise-wordmark_svg__a)"><path fill-rule="evenodd" clip-rule="evenodd" d="m13.984 22.146 4.313.014-4.16-1.147-2.214-17.929.876 17.75-3.313-.458-3.317-.451L11.764 3.06 4.833 19.74l-4.311-.014 4.157 1.148 2.213 17.932-.875-17.753 3.314.457 3.317.45-5.594 16.864 6.93-16.677Zm4.539.045L6.832 39.851.294 19.695 11.985 2.034l6.538 20.157Zm25.09-20.488h1.593V.14H40.65l-.45 1.563h1.763v5.309h1.65l.002-5.31ZM45.547 0h1.34v2.378a1.839 1.839 0 0 1 1.41-.649c.907 0 1.523.587 1.523 1.58v3.697h-1.484V3.77c0-.489-.175-.723-.551-.723-.464 0-.759.314-.759.885V7.01h-1.479V0Zm7.383 3.034a1.191 1.191 0 0 0-1.228 1.237v.078l1.8-1.161a1.137 1.137 0 0 0-.57-.154h-.002Zm-.097 4.027c-1.532 0-2.654-1.106-2.654-2.655 0-1.548 1.082-2.654 2.726-2.654 1.011 0 1.781.483 2.417 1.48l-3.267 2.103c.235.206.538.318.85.314.41 0 .885-.197 1.427-.569l.803 1.138c-.758.556-1.517.844-2.3.845l-.002-.002ZM41.936 8.343v12.791c.977 1.604 1.585 3.66 1.585 6.348 0 2.446-.543 4.643-1.585 6.515v4.778h8.63V8.343h-8.63Zm50.633 11.25c3.665 1.137 8.701 2.694 8.701 9.385 0 6.1-4.492 10.042-11.449 10.042-2.848 0-5.512-.632-7.76-1.812l-.07-.032.364 1.594h-8.577l-1.39-10.886-2.034 10.896h-7.627l-1.93-10.8-1.656 10.8h-8.216l5.651-33.75h6.97l3.122 15.7 2.855-12.387h7.128l4.54 24.53 2.877-3.674.281.326c1.244 1.444 3.036 2.202 5.185 2.202 1.122 0 3.441-.546 3.441-2.23 0-1.465-1.62-2.059-4.264-2.907-3.665-1.176-8.69-2.787-8.69-9.315 0-6.054 5.616-9.32 10.905-9.32a15.212 15.212 0 0 1 9.498 3.421l.269.221-4.366 5.554-.282-.244c-1.604-1.404-2.805-2.118-4.92-2.118-1.143 0-2.805.689-2.805 1.933 0 1.49 1.615 2.065 4.249 2.88v-.01Zm-60.817-3.13c4.865 1.504 10.381 3.209 10.381 11.024 0 3.726-1.381 6.795-3.994 8.871-2.381 1.896-5.788 2.942-9.593 2.942-1.228 0-2.454-.104-3.665-.311-3.124-.593-6.347-2.131-10.229-5.342l4.424-6.383c1.047.997 4.402 4.385 9.101 4.385 1.991 0 5.146-.885 5.146-3.523 0-2.528-2.75-3.413-5.93-4.436-4.858-1.56-10.366-3.328-10.366-10.944 0-7.086 6.65-10.908 12.902-10.908 3.809 0 7.766 1.336 10.858 3.666l.304.23-4.47 5.688-.302-.25c-1.77-1.458-3.413-2.363-6.13-2.363-1.76 0-4.355 1.031-4.355 3.246 0 2.575 2.744 3.424 5.92 4.409h-.002Zm69.553-6.698h-.333V8.216h.372l.407.655.407-.655h.36v1.551h-.331V8.722l-.426.679h-.028l-.43-.68.002 1.044Zm-1.472-1.24h-.459v-.309h1.275v.311h-.462v1.235h-.35l-.004-1.236Z" fill="currentcolor"></path></g><defs><clipPath id="the-sims-franchise-wordmark_svg__a"><path fill="#fff" transform="translate(.218)" d="M0 0h102.564v40H0z"></path></clipPath></defs></svg>