<svg viewBox="0 0 105 38" fill="none" xmlns="http://www.w3.org/2000/svg" alt="The Sims 4" height="32" width="106"><path d="m6.52 32.885 9.307-14.41-5.49-16.35L1 16.608l5.52 16.277Z" fill="#C7FFBD"></path><path d="M93.405 24.512h-7.441l7.441-10.482v10.482Zm7.356 0V2.062h-6.912L81.7 17.526c1.678 1.286 2.991 3.268 2.991 6.52 0 2.789-1.014 5.155-2.932 6.84a9.279 9.279 0 0 1-1.695 1.173h13.322v5.67h7.369v-5.67h3.568v-7.547h-3.561ZM82.386 8.32h.287V7.31h.375v-.255h-1.04v.254h.375l.003 1.011Zm1.202-.855.352.555h.023l.349-.555v.855h.263V7.055h-.296l-.33.535-.328-.535h-.307v1.269h.274v-.86Zm-56.819 6.334c-2.596-.806-4.838-1.5-4.838-3.605 0-1.814 2.12-2.644 3.558-2.644 2.218 0 3.564.74 5.006 1.933l.24.195 3.653-4.649-.246-.188a15.08 15.08 0 0 0-8.887-2.994c-5.107 0-10.531 3.126-10.531 8.922 0 6.232 4.499 7.676 8.468 8.955 2.6.832 4.844 1.553 4.844 3.634 0 2.155-2.577 2.882-4.202 2.882-3.841 0-6.583-2.772-7.438-3.589l-3.62 5.224c3.169 2.627 5.802 3.886 8.352 4.369a17.5 17.5 0 0 0 2.995.258c3.11 0 5.891-.856 7.836-2.41 2.136-1.698 3.265-4.209 3.265-7.269 0-6.394-4.502-7.792-8.474-9.02l.02-.004Zm49.677 2.574c-2.153-.66-3.472-1.14-3.472-2.36 0-1.017 1.359-1.579 2.303-1.579 1.728 0 2.709.582 4.019 1.728l.23.202 3.568-4.547-.22-.178a12.42 12.42 0 0 0-7.764-2.802c-4.322 0-8.91 2.673-8.91 7.626 0 5.343 4.101 6.662 7.1 7.623 2.158.694 3.481 1.18 3.481 2.38 0 1.377-1.892 1.823-2.81 1.823-1.748 0-3.212-.624-4.23-1.804l-.23-.267-2.35 3.01-3.715-20.074h-5.822l-2.34 10.134-2.55-12.84h-5.678l-4.608 27.61h6.714l1.353-8.835 1.576 8.836h6.23l1.666-8.922 1.132 8.922h7l-.3-1.305.06.026c1.963 1 4.138 1.509 6.339 1.484 5.683 0 9.353-3.225 9.353-8.218 0-5.472-4.107-6.748-7.109-7.676l-.016.003Zm-34.31-9.212v24.898h-7.05v-3.91a10.854 10.854 0 0 0 1.297-5.33c0-2.2-.497-3.882-1.297-5.194V7.161h7.05Zm1.856-1.055a3.152 3.152 0 0 0 1.876-.69l-.658-.929c-.335.266-.74.427-1.166.463a1.034 1.034 0 0 1-.694-.255l2.67-1.728c-.52-.816-1.156-1.21-1.976-1.21a2.158 2.158 0 0 0-1.538.62 2.177 2.177 0 0 0-.499 2.363 2.174 2.174 0 0 0 1.158 1.19c.261.113.543.173.827.176Zm.079-3.304c.163 0 .323.044.464.126l-1.471.951v-.05a.997.997 0 0 1 .616-.938.984.984 0 0 1 .388-.072l.003-.017ZM38.038 6.07h1.205V3.555c0-.472.237-.726.615-.726.31 0 .451.191.451.591v2.643h1.215V3.037a1.188 1.188 0 0 0-.746-1.214 1.174 1.174 0 0 0-.499-.078 1.509 1.509 0 0 0-1.152.528V.33h-1.089v5.74Zm-1.583 0h-1.35V1.725h-1.44l.368-1.279h3.722v1.279h-1.297l-.003 4.345Z" fill="#2B00FF"></path><path d="m15.85 18.475-.326.505-.017-.01-4.334 1.421.889-2.392 3.788.476Z" fill="#76FF83"></path><path d="m15.523 18.98-1.58 2.452-.02-.013-4.179 2.815 1.428-3.843 4.335-1.42.016.01Z" fill="#C7FFBD"></path><path d="m6.51 32.941 3.235-8.707 4.23-2.852-7.465 11.56ZM12.973 9.926l.75 2.227-2.077 2.033-.329-2.974c.58-.391 1.133-.82 1.656-1.286Z" fill="#5EEA03"></path><path d="m11.647 14.185.063.05.424 3.681-.072.083-3.818-.48 3.403-3.333Z" fill="#35BA2A"></path><path d="m10.334 2.082 2.633 7.844c-.52.468-1.069.901-1.646 1.296l-.987-9.14Z" fill="#76FF83"></path><path d="m5.894 27.307.616 5.634-1.573-4.64.895-.944.062-.05Z" fill="#5EEA03"></path><path d="m11.173 20.391-1.428 3.843-.014.01-.082.142-3.67 2.921h-.085l-.076-.053-.497-4.652.046-.12.073-.095 5.654-2.026.079.03Z" fill="#258402"></path><path d="m5.368 22.483.527 4.824-.063.05-.902.945-1.767-5.218.05-.056s1.355-.373 2.093-.598l.062.053Z" fill="#35BA2A"></path><path d="m9.731 24.244.013-.01-3.235 8.707-.615-5.634 3.837-3.063Z" fill="#134401"></path><path d="m4.777 17.084.59 5.399c-1.175.357-2.05.568-2.189.601L.979 16.608l.083-.06 3.62.456.095.08ZM13.724 12.157l2.126 6.318-3.788-.476-.414-3.813 2.076-2.03Z" fill="#4E801A"></path><path d="m12.058 17.999-.875 2.389s-4.506 1.702-5.796 2.091l-.59-5.399 3.52.443 3.741.476Z" fill="#5EEA03"></path><path d="m2.014 14.995.135.053 3.646-.991s.102-.136.142-.149h.016l4.38-11.833-8.32 12.92Z" fill="#35BA2A"></path><path d="M5.936 13.921a25.228 25.228 0 0 1-3.923 1.074L.979 16.608l3.805.476 1.175-3.17-.023.007Z" fill="#134401"></path><path d="m10.334 2.082-4.38 11.833a23.064 23.064 0 0 0 5.374-2.693l-.994-9.14Z" fill="#C7FFBD"></path><path d="M11.327 11.222a23.063 23.063 0 0 1-5.375 2.693l-1.175 3.169 3.463.436 3.406-3.334-.32-2.964Z" fill="#F6F7F5"></path></svg>