<svg viewBox="0 0 93 12" fill="var(--network-nav-icon-fill)" xmlns="http://www.w3.org/2000/svg" aria-label="https://ea.com" height="12" width="93"><g clip-path="url(#ElectronicArtsWordmark_svg__a)"><path d="M0 11.354h7.45V9.578H2.054V7.07h4.37V5.296h-4.37V2.89H7.45V1.086H0v10.268ZM8.297 11.354h1.864V.5l-1.864.586v10.268ZM14.784 3.874c-2.098 0-3.798 1.598-3.798 3.813 0 2.216 1.788 3.813 3.988 3.813 1.628 0 2.948-.924 3.506-2.332h-2.068c-.308.455-.836.675-1.408.675-.998 0-1.818-.616-2.068-1.54h5.646c0-.103.016-.191.016-.279 0-2.816-1.996-4.15-3.814-4.15ZM12.95 6.968c.25-.894.968-1.466 1.834-1.466a1.81 1.81 0 0 1 1.79 1.466H12.95ZM23.053 5.62a1.903 1.903 0 0 1 1.804 1.29h1.892a3.732 3.732 0 0 0-3.696-3.022c-2.112 0-3.828 1.6-3.828 3.814S20.94 11.5 23.053 11.5c1.818 0 3.344-1.188 3.696-2.962h-1.892a1.903 1.903 0 0 1-1.804 1.29c-1.1 0-1.98-.865-1.98-2.097 0-1.261.88-2.112 1.98-2.112ZM29.179 1.894l-1.833.586v6.982c0 1.13.792 1.892 2.14 1.892h1.82V9.696h-1.291c-.572 0-.836-.264-.836-.748V5.619h2.127V4.035H29.18V1.894ZM83.655 1.894l-1.834.586v6.982c0 1.13.792 1.892 2.142 1.892h1.818V9.696h-1.29c-.572 0-.836-.264-.836-.748V5.619h2.126V4.035h-2.126V1.894ZM33.879 5.355v-1.32h-1.863v7.319h1.863V7.482c0-.998.88-2.039 2.376-1.804V3.903c-1.13-.132-1.936.499-2.376 1.452ZM40.19 3.888c-2.14 0-3.871 1.6-3.871 3.814s1.73 3.798 3.872 3.798 3.872-1.598 3.872-3.798-1.73-3.814-3.872-3.814Zm0 5.926c-1.128 0-2.023-.866-2.023-2.098 0-1.26.895-2.112 2.024-2.112 1.128 0 2.024.851 2.024 2.112 0 1.232-.891 2.098-2.024 2.098ZM48.944 3.874c-.939 0-1.745.41-2.185 1.07v-.909h-1.862v7.319h1.862v-4.43a1.506 1.506 0 0 1 1.526-1.525c.894 0 1.524.645 1.524 1.599v4.356h1.864V6.85c0-1.716-.984-2.977-2.729-2.977ZM53.633.72a1.204 1.204 0 1 0 1.202 1.203A1.21 1.21 0 0 0 53.633.72ZM54.57 4.034H52.71v7.319h1.862V4.034ZM59.224 5.62a1.9 1.9 0 0 1 1.804 1.29h1.892a3.73 3.73 0 0 0-3.696-3.022c-2.111 0-3.827 1.6-3.827 3.814s1.716 3.798 3.827 3.798c1.82 0 3.345-1.188 3.696-2.962h-1.892a1.901 1.901 0 0 1-1.804 1.29c-1.1 0-1.98-.865-1.98-2.097.001-1.261.881-2.112 1.98-2.112ZM65.94 11.354h2.084l1.012-2.186h4.282l1.042 2.186h2.14L71.22.647l-5.28 10.707Zm3.828-3.755 1.38-2.992L72.57 7.6h-2.802ZM78.809 5.355v-1.32h-1.863v7.319h1.863V7.482c0-.998.88-2.039 2.376-1.804V3.903c-1.13-.132-1.936.499-2.376 1.452ZM89.762 6.94c-.91-.236-1.687-.44-1.687-.984 0-.44.47-.674.983-.674.865 0 1.51.498 1.628 1.261h1.7c-.16-1.57-1.495-2.67-3.3-2.67-1.597 0-2.83.837-2.83 2.245 0 1.57 1.496 1.98 2.743 2.302.895.235 1.658.426 1.658.954 0 .425-.484.718-1.159.718-.91 0-1.598-.513-1.702-1.276h-1.702c.16 1.57 1.54 2.684 3.402 2.684 1.686 0 3.006-.894 3.006-2.302.003-1.526-1.493-1.936-2.74-2.259Z"></path></g><defs><clipPath id="ElectronicArtsWordmark_svg__a"><path fill="#fff" transform="translate(0 .5)" d="M0 0h93v11H0z"></path></clipPath></defs></svg>