<svg viewBox="0 0 24 24" xmlns="http://www.w3.org/2000/svg" class="Twitter_svg__twitter-icon-TEyiXAxMnB" alt="Twitter" height="24px" width="24px"><path fill-rule="evenodd" clip-rule="evenodd" d="M22 5.893a8.27 8.27 0 0 1-2.355.636 4.066 4.066 0 0 0 1.802-2.234 8.354 8.354 0 0 1-2.606.981A4.12 4.12 0 0 0 15.846 4c-2.266 0-4.103 1.809-4.103 4.04 0 .316.036.625.107.92a11.704 11.704 0 0 1-8.456-4.22 3.962 3.962 0 0 0-.555 2.031c0 1.401.725 2.638 1.824 3.363a4.148 4.148 0 0 1-1.858-.508v.051c0 1.957 1.415 3.59 3.291 3.962a4.091 4.091 0 0 1-1.855.067 4.1 4.1 0 0 0 3.833 2.806 8.312 8.312 0 0 1-5.095 1.726c-.331 0-.658-.018-.979-.055A11.731 11.731 0 0 0 8.289 20c7.547 0 11.672-6.157 11.672-11.497l-.014-.523A8.112 8.112 0 0 0 22 5.893"></path></svg>