<svg viewBox="0 0 24 24" xmlns="http://www.w3.org/2000/svg" class="Youtube_svg__youtube-icon-P6Lvx2Cycd" alt="Youtube" height="24px" width="24px"><path fill-rule="evenodd" clip-rule="evenodd" d="M19.814 5.418c.86.23 1.538.908 1.768 1.768C22 8.746 22 12 22 12s0 3.254-.418 4.814a2.505 2.505 0 0 1-1.768 1.768C18.254 19 12 19 12 19s-6.254 0-7.814-.418a2.505 2.505 0 0 1-1.768-1.768C2 15.254 2 12 2 12s0-3.254.418-4.814c.23-.86.908-1.538 1.768-1.768C5.746 5 12 5 12 5s6.254 0 7.814.418zm-9.86 3.627v5.91L15.183 12 9.955 9.045z"></path></svg>